# xmcd
#
# Track frame offsets:
#	150
#	22025
#	38724
#	53052
#	69222
#	87537
#	103184
#	119144
#	140825
#	157633
#	178364
#	194385
#	216756
#	232452
#	254495
#	270553
#	287243
#	305219
#	321591
#
# Disc length: 4517 seconds
#
# Revision: 0
# Processed by: cddbd v1.4PL0 Copyright (c) Steve Scherf et al.
# Submitted via: audiograbber 1.81.01
#
DISCID=3511a313
DTITLE=Various Artist - R&B Frequency
DYEAR=1900
DGENRE=R&B
TTITLE0=I Know What You Want
TTITLE1=In The Club
TTITLE2=Ignition
TTITLE3=Colour Blind
TTITLE4=Miss You
TTITLE5=Think Of Aaliyah
TTITLE6=I Want You
TTITLE7=Bump Bump Bump
TTITLE8=I'm Glad
TTITLE9=Into You
TTITLE10=Magic Stick
TTITLE11=How You Gonna Act Like That
TTITLE12=So Gone
TTITLE13=Snake
TTITLE14=Rock With You
TTITLE15=Hell Yeah
TTITLE16=Crazy In Love
TTITLE17=The One
TTITLE18=U Make Me Wanna
EXTD=
EXTT0=
EXTT1=
EXTT2=
EXTT3=
EXTT4=
EXTT5=
EXTT6=
EXTT7=
EXTT8=
EXTT9=
EXTT10=
EXTT11=
EXTT12=
EXTT13=
EXTT14=
EXTT15=
EXTT16=
EXTT17=
EXTT18=
PLAYORDER=
